HIERARCHY
ROOT Hips
{
	OFFSET -0.001795 -0.223333 0.028219
	CHANNELS 6 Xposition Yposition Zposition Zrotation Yrotation Xrotation 
	JOINT LeftUpLeg
	{
		OFFSET 0.069520 -0.091406 -0.006815
		CHANNELS 3 Zrotation Yrotation Xrotation
		JOINT LeftLeg
		{
			OFFSET 0.034277 -0.375199 -0.004496
			CHANNELS 3 Zrotation Yrotation Xrotation
			JOINT LeftFoot
			{
				OFFSET -0.013596 -0.397961 -0.043693
				CHANNELS 3 Zrotation Yrotation Xrotation
				JOINT LeftToe
				{
					OFFSET 0.026358 -0.055791 0.119288
					CHANNELS 3 Zrotation Yrotation Xrotation
					End Site
					{
						OFFSET 0.000000 0.000000 0.000000
					}
				}
			}
		}
	}
	JOINT RightUpLeg
	{
		OFFSET -0.067670 -0.090522 -0.004320
		CHANNELS 3 Zrotation Yrotation Xrotation
		JOINT RightLeg
		{
			OFFSET -0.038290 -0.382569 -0.008850
			CHANNELS 3 Zrotation Yrotation Xrotation
			JOINT RightFoot
			{
				OFFSET 0.015774 -0.398415 -0.042312
				CHANNELS 3 Zrotation Yrotation Xrotation
				JOINT RightToe
				{
					OFFSET -0.025372 -0.048144 0.123348
					CHANNELS 3 Zrotation Yrotation Xrotation
					End Site
					{
						OFFSET 0.000000 0.000000 0.000000
					}
				}
			}
		}
	}
	JOINT Spine
	{
		OFFSET -0.002533 0.108963 -0.026696
		CHANNELS 3 Zrotation Yrotation Xrotation
		JOINT Spine1
		{
			OFFSET 0.005487 0.135180 0.001092
			CHANNELS 3 Zrotation Yrotation Xrotation
			JOINT Spine2
			{
				OFFSET 0.001457 0.052922 0.025425
				CHANNELS 3 Zrotation Yrotation Xrotation
				JOINT Neck
				{
					OFFSET -0.002778 0.213870 -0.042857
					CHANNELS 3 Zrotation Yrotation Xrotation
					JOINT Head
					{
						OFFSET 0.005152 0.064970 0.051349
						CHANNELS 3 Zrotation Yrotation Xrotation
						End Site
						{
							OFFSET 0.000000 0.000000 0.000000
						}
					}
				}
				JOINT LeftShoulder
				{
					OFFSET 0.078845 0.121749 -0.034090
					CHANNELS 3 Zrotation Yrotation Xrotation
					JOINT LeftArm
					{
						OFFSET 0.090977 0.030469 -0.008868
						CHANNELS 3 Zrotation Yrotation Xrotation
						JOINT LeftForeArm
						{
							OFFSET 0.259612 -0.012772 -0.027456
							CHANNELS 3 Zrotation Yrotation Xrotation
							JOINT LeftHand
							{
								OFFSET 0.249234 0.008986 -0.001171
								CHANNELS 3 Zrotation Yrotation Xrotation
								End Site
								{
									OFFSET 0.000000 0.000000 0.000000
								}
							}
						}
					}
				}
				JOINT RightShoulder
				{
					OFFSET -0.081759 0.118833 -0.038615
					CHANNELS 3 Zrotation Yrotation Xrotation
					JOINT RightArm
					{
						OFFSET -0.096012 0.032551 -0.009143
						CHANNELS 3 Zrotation Yrotation Xrotation
						JOINT RightForeArm
						{
							OFFSET -0.253742 -0.013329 -0.021401
							CHANNELS 3 Zrotation Yrotation Xrotation
							JOINT RightHand
							{
								OFFSET -0.255298 0.007772 -0.005559
								CHANNELS 3 Zrotation Yrotation Xrotation
								End Site
								{
									OFFSET 0.000000 0.000000 0.000000
								}
							}
						}
					}
				}
			}
		}
	}
}
MOTION
Frames: 16
Frame Time: 0.050000
0.000000 0.939777 0.000000 -0.945678 1.604860 6.231143 6.952485 -0.349597 -4.339839 1.772713 -0.060106 -2.515093 0.888505 5.009784 8.100352 0.000000 0.000000 0.000000 -5.011039 0.472852 -5.166070 -1.379091 0.216570 1.375403 -2.664058 -8.610677 6.607375 0.000000 0.000000 0.000000 3.034493 0.217136 -4.682904 -1.402718 0.738777 -4.883410 -1.738728 2.461312 5.627236 3.508783 -0.972912 -13.096636 0.000000 0.000000 0.000000 -14.595357 0.139878 -2.105176 -57.214028 -5.093714 -4.486004 -8.638852 -17.494210 1.865440 0.000000 0.000000 0.000000 13.882905 -3.020631 -2.091940 63.488742 5.870636 -2.857000 6.257423 18.524046 1.633416 0.000000 0.000000 0.000000 
0.000481 0.939122 -0.000254 -1.129177 0.976947 6.655333 7.076125 -0.326043 -3.620851 2.271453 -0.018960 -4.086326 1.125654 5.416002 8.245880 0.000000 0.000000 0.000000 -5.108961 0.522290 -5.861913 -1.420530 0.240914 1.781977 -1.988239 -7.154512 6.398259 0.000000 0.000000 0.000000 3.497086 0.249610 -5.111868 -2.193621 1.062944 -5.177017 -1.288585 2.810978 5.635146 2.471761 -0.204842 -14.104931 0.000000 0.000000 0.000000 -15.536478 1.324656 -2.802308 -56.368091 -4.744585 -4.548443 -9.997761 -18.319457 2.171812 0.000000 0.000000 0.000000 13.954169 -3.751022 -2.481351 63.854211 5.737683 -2.931013 6.786952 18.724445 1.730407 0.000000 0.000000 0.000000 
0.000801 0.939147 -0.000486 -0.985329 1.619194 6.496426 6.936669 -0.345361 -4.048109 2.476037 -0.103240 -2.776152 0.693953 4.285371 7.007212 0.000000 0.000000 0.000000 -5.411910 0.520891 -6.113927 -1.120251 0.224976 2.186533 -2.877056 -9.023514 6.434407 0.000000 0.000000 0.000000 2.939046 0.221720 -4.809143 -1.578898 0.837631 -6.801217 -1.554237 2.148417 6.706468 2.307671 -0.147772 -13.964838 0.000000 0.000000 0.000000 -15.265317 1.063668 -2.560550 -56.590395 -4.589373 -4.757837 -9.581562 -18.342851 2.127584 0.000000 0.000000 0.000000 14.770950 -2.409599 -1.888706 62.471959 6.005059 -2.931446 6.611733 18.791103 1.712283 0.000000 0.000000 0.000000 
0.001102 0.939181 -0.000525 -1.044026 1.529768 6.857880 7.078781 -0.362194 -4.433901 2.427547 -0.096853 -2.819841 0.631098 4.245172 7.241820 0.000000 0.000000 0.000000 -5.546135 0.561340 -6.821644 -0.788893 0.212398 2.832896 -3.109469 -9.515008 6.375604 0.000000 0.000000 0.000000 2.776103 0.235483 -5.100994 -2.099419 1.040065 -6.426651 -0.549097 1.281709 5.779029 1.522140 0.174575 -13.207134 0.000000 0.000000 0.000000 -14.838233 2.375887 -2.943314 -57.613084 -4.824447 -4.646082 -9.339274 -18.718906 2.165875 0.000000 0.000000 0.000000 13.014031 -2.170869 -1.841885 63.169382 5.794233 -2.968815 7.711500 19.590415 1.921327 0.000000 0.000000 0.000000 
0.001375 0.939879 -0.000498 -0.874945 2.189082 6.786942 6.953668 -0.374355 -4.540650 2.349627 -0.088006 -2.822332 0.319218 3.873237 7.612321 0.000000 0.000000 0.000000 -5.741616 0.525188 -6.377773 -0.781527 0.192316 2.409769 -3.548874 -10.486198 6.789237 0.000000 0.000000 0.000000 2.304378 0.219435 -4.967640 -1.292390 0.733347 -6.823659 -0.992978 0.995739 5.858494 1.342581 0.310757 -13.271158 0.000000 0.000000 0.000000 -14.521061 2.551150 -3.009600 -57.925003 -5.157571 -4.529498 -9.834976 -19.066075 2.283663 0.000000 0.000000 0.000000 13.067965 -2.299331 -1.876336 62.945460 5.586459 -3.073066 8.279796 20.145649 2.084398 0.000000 0.000000 0.000000 
0.001672 0.940147 -0.000315 -0.876512 2.202000 7.123482 6.969226 -0.397443 -5.118582 2.633455 -0.125799 -2.542297 0.417949 4.099552 7.745329 0.000000 0.000000 0.000000 -5.726646 0.545097 -6.686643 -0.869914 0.198056 2.289154 -3.719771 -10.904455 7.112459 0.000000 0.000000 0.000000 2.077171 0.239352 -5.401915 -1.352874 0.756062 -6.793559 -0.489638 0.657583 5.767458 1.414791 0.224286 -13.255625 0.000000 0.000000 0.000000 -14.667109 3.258496 -3.299929 -57.996991 -5.161277 -4.512975 -10.171307 -19.476799 2.406764 0.000000 0.000000 0.000000 12.373727 -2.162468 -1.818136 63.357028 5.574236 -3.091682 8.648343 20.089732 2.120010 0.000000 0.000000 0.000000 
0.001924 0.940468 -0.000084 -0.761365 2.278605 7.165514 6.804307 -0.401048 -5.144069 2.719990 -0.116506 -2.819411 0.207710 3.965452 8.385324 0.000000 0.000000 0.000000 -5.640421 0.534512 -6.447405 -1.100815 0.211017 1.942253 -3.755597 -11.024505 7.402401 0.000000 0.000000 0.000000 1.901334 0.234932 -5.377201 -1.215741 0.701920 -6.745408 -0.572339 0.181311 5.598407 1.438859 0.175697 -13.303379 0.000000 0.000000 0.000000 -14.603606 3.666899 -3.417145 -58.258885 -4.983905 -4.598949 -10.600048 -19.929544 2.555224 0.000000 0.000000 0.000000 12.476508 -2.167039 -1.897101 63.441900 5.311829 -3.250035 8.725992 20.546144 2.171800 0.000000 0.000000 0.000000 
0.002240 0.940514 0.000125 -0.695568 2.371602 7.347300 6.559066 -0.420532 -5.539827 2.929832 -0.148069 -2.553260 0.049327 3.620013 8.180533 0.000000 0.000000 0.000000 -5.568797 0.539320 -6.485744 -1.301083 0.225483 1.731087 -3.866095 -11.270099 7.538522 0.000000 0.000000 0.000000 1.611446 0.233194 -5.446070 -1.016650 0.622759 -6.690828 -0.521233 0.034095 5.266366 1.319183 0.277648 -13.678327 0.000000 0.000000 0.000000 -14.432488 4.028091 -3.553381 -58.376038 -5.039097 -4.548620 -10.988492 -19.875976 2.615898 0.000000 0.000000 0.000000 12.559487 -2.497687 -2.083720 63.637543 5.116745 -3.336186 8.749613 20.322757 2.142336 0.000000 0.000000 0.000000 
0.002520 0.940551 0.000306 -0.699184 2.232542 7.582027 6.456302 -0.430617 -5.743369 2.951640 -0.145981 -2.624170 0.031287 3.627206 8.323046 0.000000 0.000000 0.000000 -5.469007 0.549869 -6.548738 -1.462795 0.228796 1.415368 -3.835163 -11.250730 7.737235 0.000000 0.000000 0.000000 1.535721 0.233638 -5.485203 -0.889901 0.570519 -6.737015 -0.556260 -0.116235 4.900390 1.253537 0.326726 -13.972997 0.000000 0.000000 0.000000 -14.021675 4.210192 -3.545303 -58.710931 -4.998892 -4.554973 -11.197552 -19.610764 2.620398 0.000000 0.000000 0.000000 12.448685 -2.774763 -2.244550 63.751365 4.926833 -3.415437 8.662216 20.192001 2.100324 0.000000 0.000000 0.000000 
0.002713 0.940541 0.000453 -0.618090 2.424324 7.784579 6.359817 -0.451575 -6.128860 2.899298 -0.152243 -2.426815 -0.028759 3.419140 8.004066 0.000000 0.000000 0.000000 -5.630117 0.555369 -6.719727 -1.405324 0.214441 1.262548 -3.940400 -11.486048 7.948159 0.000000 0.000000 0.000000 1.415657 0.234552 -5.576621 -0.838419 0.552930 -6.744809 -0.512064 -0.365329 4.660168 1.072008 0.485873 -14.681928 0.000000 0.000000 0.000000 -13.565138 4.226105 -3.460138 -58.878570 -5.183860 -4.450376 -11.908749 -19.340167 2.706471 0.000000 0.000000 0.000000 12.263207 -2.870322 -2.296670 63.629666 4.689310 -3.520933 8.889432 20.082327 2.114916 0.000000 0.000000 0.000000 
0.002841 0.940673 0.000542 -0.491438 2.353285 7.971144 6.236927 -0.459249 -6.236861 2.986044 -0.147669 -2.623565 -0.134202 3.269790 8.124184 0.000000 0.000000 0.000000 -5.844993 0.557939 -6.806642 -1.265640 0.194477 1.196586 -4.079373 -11.772746 7.926477 0.000000 0.000000 0.000000 1.323182 0.237053 -5.663878 -0.738119 0.511991 -6.757430 -0.564864 -0.465804 4.587895 0.934447 0.581271 -14.962619 0.000000 0.000000 0.000000 -13.288507 4.175401 -3.374444 -58.868873 -5.260788 -4.398747 -12.453012 -19.501095 2.827320 0.000000 0.000000 0.000000 12.015811 -2.936194 -2.319996 63.798422 4.833362 -3.445704 8.736874 19.896274 2.062619 0.000000 0.000000 0.000000 
0.002936 0.940620 0.000599 -0.397891 2.577973 8.199092 6.302498 -0.476672 -6.557845 3.011779 -0.153210 -2.542469 -0.321253 2.925011 8.043665 0.000000 0.000000 0.000000 -5.994427 0.558513 -6.888526 -1.214854 0.182520 1.069062 -4.374086 -12.410121 8.302071 0.000000 0.000000 0.000000 1.222720 0.239139 -5.783326 -0.564735 0.442493 -6.605871 -0.728496 -0.558679 4.235236 0.963372 0.591260 -15.191535 0.000000 0.000000 0.000000 -12.821874 4.246660 -3.351871 -58.948775 -5.555822 -4.224954 -12.996090 -19.477211 2.908984 0.000000 0.000000 0.000000 11.665256 -3.127575 -2.365863 63.694693 4.664068 -3.482536 8.998559 20.085598 2.125488 0.000000 0.000000 0.000000 
0.003055 0.940584 0.000646 -0.311906 2.548544 8.330994 6.112589 -0.489590 -6.770128 3.159992 -0.172335 -2.424580 -0.355975 2.839666 7.988580 0.000000 0.000000 0.000000 -6.042278 0.563445 -6.975350 -1.266521 0.191495 1.132028 -4.494164 -12.671432 8.419994 0.000000 0.000000 0.000000 1.184228 0.241126 -5.846433 -0.470447 0.405965 -6.669692 -0.751180 -0.515953 4.190291 0.951684 0.625427 -15.484449 0.000000 0.000000 0.000000 -12.735714 4.259621 -3.350397 -58.775542 -5.896794 -4.037449 -13.432084 -19.653870 3.009526 0.000000 0.000000 0.000000 11.756368 -3.159399 -2.387222 63.406009 4.680529 -3.451633 8.828311 20.212296 2.114396 0.000000 0.000000 0.000000 
0.003251 0.940533 0.000667 -0.276107 2.698188 8.348299 6.120638 -0.493321 -6.821446 3.108260 -0.164379 -2.474387 -0.474849 2.623142 7.943746 0.000000 0.000000 0.000000 -6.082055 0.555195 -6.863823 -1.246531 0.187442 1.092768 -4.659779 -13.032153 8.749071 0.000000 0.000000 0.000000 1.072290 0.227982 -5.621569 -0.216888 0.308923 -6.705841 -0.964968 -0.251820 3.940848 1.328234 0.419751 -15.261310 0.000000 0.000000 0.000000 -12.347820 4.204523 -3.324902 -58.746779 -6.227283 -3.864750 -13.648570 -19.867569 3.060565 0.000000 0.000000 0.000000 11.964421 -3.398225 -2.469990 62.920080 4.538485 -3.452485 8.708585 20.503853 2.142978 0.000000 0.000000 0.000000 
0.003515 0.940363 0.000675 -0.187657 2.648412 8.353900 6.032623 -0.498498 -6.924388 3.029038 -0.167695 -2.317327 -0.467524 2.584926 7.825282 0.000000 0.000000 0.000000 -6.335362 0.551555 -6.909983 -1.186337 0.184814 1.185672 -4.654863 -13.056495 9.005045 0.000000 0.000000 0.000000 1.076989 0.228091 -5.619854 -0.162971 0.287661 -6.738797 -1.098447 -0.096495 4.037889 1.476734 0.350431 -15.324741 0.000000 0.000000 0.000000 -12.028243 4.391330 -3.378049 -58.904264 -6.480101 -3.768319 -13.540249 -20.161255 3.082056 0.000000 0.000000 0.000000 11.814756 -3.308292 -2.386663 62.717120 4.704277 -3.351491 8.301250 20.585263 2.093389 0.000000 0.000000 0.000000 
0.003781 0.940257 0.000679 -0.166529 2.872065 8.210114 6.103144 -0.495379 -6.874481 2.794492 -0.149185 -2.292537 -0.568168 2.419476 7.811248 0.000000 0.000000 0.000000 -6.439674 0.533095 -6.688679 -1.227493 0.188099 1.144264 -4.623517 -13.000920 9.235697 0.000000 0.000000 0.000000 0.960440 0.224007 -5.576359 0.049317 0.205679 -6.699720 -1.294957 -0.035402 4.154350 1.700503 0.209791 -15.026935 0.000000 0.000000 0.000000 -11.802897 4.290228 -3.324954 -59.070391 -6.520556 -3.786448 -13.457123 -20.619888 3.129538 0.000000 0.000000 0.000000 12.117403 -3.229924 -2.345393 62.349900 4.934078 -3.219322 8.059462 20.741712 2.083602 0.000000 0.000000 0.000000 
